<svg xmlns="http://www.w3.org/2000/svg" viewBox="0 8.859999656677246 344.8699951171875 46.93000030517578" data-asc="0.9052734375"><g fill="#ffffff"><g fill="#ffffff" transform="translate(0, 0)"><path d="M17.94 31.23L17.94 27.03L33.11 27.00L33.11 40.28Q29.61 43.07 25.90 44.47Q22.19 45.87 18.29 45.87Q13.01 45.87 8.70 43.62Q4.39 41.36 2.20 37.08Q0 32.81 0 27.54Q0 22.31 2.19 17.79Q4.37 13.26 8.47 11.06Q12.57 8.86 17.92 8.86Q21.80 8.86 24.94 10.12Q28.08 11.38 29.86 13.62Q31.64 15.87 32.57 19.48L28.30 20.65Q27.49 17.92 26.29 16.36Q25.10 14.79 22.88 13.85Q20.65 12.92 17.94 12.92Q14.70 12.92 12.33 13.90Q9.96 14.89 8.51 16.50Q7.06 18.12 6.25 20.04Q4.88 23.36 4.88 27.25Q4.88 32.03 6.53 35.25Q8.18 38.48 11.33 40.04Q14.48 41.60 18.02 41.60Q21.09 41.60 24.02 40.42Q26.95 39.23 28.47 37.89L28.47 31.23L17.94 31.23ZM56.45 42.07Q54.00 44.14 51.75 45.00Q49.49 45.85 46.90 45.85Q42.63 45.85 40.33 43.76Q38.04 41.67 38.04 38.43Q38.04 36.52 38.90 34.95Q39.77 33.37 41.17 32.42Q42.58 31.47 44.34 30.98Q45.63 30.64 48.24 30.32Q53.56 29.69 56.08 28.81Q56.10 27.91 56.10 27.66Q56.10 24.98 54.86 23.88Q53.17 22.39 49.85 22.39Q46.75 22.39 45.28 23.47Q43.80 24.56 43.09 27.32L38.79 26.73Q39.38 23.97 40.72 22.28Q42.07 20.58 44.60 19.67Q47.14 18.75 50.49 18.75Q53.81 18.75 55.88 19.53Q57.96 20.31 58.94 21.50Q59.91 22.68 60.30 24.49Q60.52 25.61 60.52 28.54L60.52 34.40Q60.52 40.53 60.80 42.15Q61.08 43.77 61.91 45.26L57.32 45.26Q56.64 43.90 56.45 42.07M56.08 32.25Q53.69 33.23 48.90 33.91Q46.19 34.30 45.07 34.79Q43.95 35.28 43.33 36.22Q42.72 37.16 42.72 38.31Q42.72 40.06 44.06 41.24Q45.39 42.41 47.95 42.41Q50.49 42.41 52.47 41.30Q54.44 40.19 55.37 38.26Q56.08 36.77 56.08 33.86L56.08 32.25ZM67.33 45.26L67.33 19.34L71.26 19.34L71.26 22.97Q72.49 21.07 74.51 19.91Q76.54 18.75 79.13 18.75Q82.01 18.75 83.85 19.95Q85.69 21.14 86.45 23.29Q89.53 18.75 94.46 18.75Q98.32 18.75 100.39 20.89Q102.47 23.02 102.47 27.47L102.47 45.26L98.10 45.26L98.10 28.93Q98.10 26.29 97.67 25.13Q97.24 23.97 96.12 23.27Q95.00 22.56 93.48 22.56Q90.75 22.56 88.94 24.38Q87.13 26.20 87.13 30.20L87.13 45.26L82.74 45.26L82.74 28.42Q82.74 25.49 81.67 24.02Q80.59 22.56 78.15 22.56Q76.29 22.56 74.72 23.54Q73.14 24.51 72.44 26.39Q71.73 28.27 71.73 31.81L71.73 45.26L67.33 45.26ZM126.73 36.91L131.27 37.48Q130.20 41.46 127.29 43.65Q124.39 45.85 119.87 45.85Q114.18 45.85 110.85 42.35Q107.52 38.84 107.52 32.52Q107.52 25.98 110.89 22.36Q114.26 18.75 119.63 18.75Q124.83 18.75 128.13 22.29Q131.42 25.83 131.42 32.25Q131.42 32.64 131.40 33.42L112.06 33.42Q112.30 37.70 114.48 39.97Q116.65 42.24 119.90 42.24Q122.31 42.24 124.02 40.97Q125.73 39.70 126.73 36.91M112.30 29.81L126.78 29.81Q126.49 26.54 125.12 24.90Q123.02 22.36 119.68 22.36Q116.65 22.36 114.59 24.39Q112.52 26.42 112.30 29.81ZM136.69 45.26L136.69 9.47L141.09 9.47L141.09 45.26L136.69 45.26ZM147.71 55.25L147.22 51.12Q148.66 51.51 149.73 51.51Q151.20 51.51 152.08 51.03Q152.95 50.54 153.52 49.66Q153.93 49.00 154.86 46.39Q154.98 46.02 155.25 45.31L145.41 19.34L150.15 19.34L155.54 34.35Q156.59 37.21 157.42 40.36Q158.18 37.33 159.23 34.45L164.77 19.34L169.17 19.34L159.30 45.70Q157.71 49.98 156.84 51.59Q155.66 53.76 154.15 54.77Q152.64 55.79 150.54 55.79Q149.27 55.79 147.71 55.25ZM184.72 20.41Q187.40 20.41 189.99 21.80Q192.58 23.19 194.02 25.78Q195.46 28.37 195.46 31.15Q195.46 35.62 192.31 38.77Q189.16 41.92 184.72 41.92Q180.25 41.92 177.10 38.77Q173.95 35.62 173.95 31.15Q173.95 28.34 175.39 25.77Q176.83 23.19 179.42 21.80Q182.01 20.41 184.72 20.41ZM212.77 45.26L212.77 13.70L200.98 13.70L200.98 9.47L229.35 9.47L229.35 13.70L217.50 13.70L217.50 45.26L212.77 45.26ZM226.46 32.30Q226.46 25.10 230.47 21.63Q233.81 18.75 238.62 18.75Q243.97 18.75 247.36 22.25Q250.76 25.76 250.76 31.93Q250.76 36.94 249.26 39.81Q247.75 42.68 244.89 44.26Q242.02 45.85 238.62 45.85Q233.18 45.85 229.82 42.36Q226.46 38.87 226.46 32.30M230.98 32.30Q230.98 37.28 233.15 39.76Q235.33 42.24 238.62 42.24Q241.89 42.24 244.07 39.75Q246.24 37.26 246.24 32.15Q246.24 27.34 244.06 24.87Q241.87 22.39 238.62 22.39Q235.33 22.39 233.15 24.85Q230.98 27.32 230.98 32.30ZM267.72 20.41Q270.41 20.41 273.00 21.80Q275.59 23.19 277.03 25.78Q278.47 28.37 278.47 31.15Q278.47 35.62 275.32 38.77Q272.17 41.92 267.72 41.92Q263.26 41.92 260.11 38.77Q256.96 35.62 256.96 31.15Q256.96 28.34 258.40 25.77Q259.84 23.19 262.43 21.80Q265.01 20.41 267.72 20.41ZM286.67 45.26L286.67 9.47L299.00 9.47Q303.17 9.47 305.37 9.99Q308.45 10.69 310.62 12.55Q313.45 14.94 314.86 18.66Q316.26 22.39 316.26 27.17Q316.26 31.25 315.31 34.40Q314.36 37.55 312.87 39.61Q311.38 41.67 309.61 42.86Q307.84 44.04 305.33 44.65Q302.83 45.26 299.58 45.26L286.67 45.26M291.41 41.04L299.05 41.04Q302.59 41.04 304.60 40.38Q306.62 39.72 307.81 38.53Q309.50 36.84 310.44 34.00Q311.38 31.15 311.38 27.10Q311.38 21.48 309.53 18.47Q307.69 15.45 305.05 14.43Q303.15 13.70 298.93 13.70L291.41 13.70L291.41 41.04ZM320.58 32.30Q320.58 25.10 324.58 21.63Q327.93 18.75 332.74 18.75Q338.09 18.75 341.48 22.25Q344.87 25.76 344.87 31.93Q344.87 36.94 343.37 39.81Q341.87 42.68 339.00 44.26Q336.13 45.85 332.74 45.85Q327.29 45.85 323.94 42.36Q320.58 38.87 320.58 32.30M325.10 32.30Q325.10 37.28 327.27 39.76Q329.44 42.24 332.74 42.24Q336.01 42.24 338.18 39.75Q340.36 37.26 340.36 32.15Q340.36 27.34 338.17 24.87Q335.99 22.39 332.74 22.39Q329.44 22.39 327.27 24.85Q325.10 27.32 325.10 32.30Z"/></g></g></svg>